<svg width="30" height="29" viewBox="0 0 30 29" fill="none" xmlns="http://www.w3.org/2000/svg">
<path d="M12.7553 1.94241L14.2417 0.46817C14.8711 -0.156057 15.8889 -0.156057 16.5116 0.46817L29.528 13.3711C30.1574 13.9953 30.1574 15.0047 29.528 15.6223L16.5116 28.5318C15.8822 29.1561 14.8644 29.1561 14.2417 28.5318L12.7553 27.0576C12.1192 26.4267 12.1326 25.3974 12.7821 24.7798L20.8504 17.1563H1.60696C0.716438 17.1563 0 16.4457 0 15.5625V13.4375C0 12.5543 0.716438 11.8437 1.60696 11.8437H20.8504L12.7821 4.22017C12.1259 3.60259 12.1125 2.57328 12.7553 1.94241Z" fill="white"/>
</svg>
