<svg width="67" height="13" viewBox="0 0 67 13" fill="none" xmlns="http://www.w3.org/2000/svg">
<path d="M6.89062 0.625H9.17969L7.84375 8.5C7.75 9.21875 7.51042 9.86198 7.125 10.4297C6.73958 10.9974 6.24479 11.4323 5.64062 11.7344C5.03646 12.0365 4.3724 12.1797 3.64844 12.1641C2.57552 12.1432 1.7474 11.8255 1.16406 11.2109C0.580729 10.5964 0.304688 9.73698 0.335938 8.63281L2.64062 8.64062C2.5625 9.71354 2.9401 10.2578 3.77344 10.2734C4.22656 10.2891 4.61198 10.138 4.92969 9.82031C5.2474 9.5026 5.45312 9.0625 5.54688 8.5L6.89062 0.625Z" fill="#808080"/>
<path d="M18.9744 7.99463H15.4324L15.0008 10.4702H19.1648L18.8982 12H12.8743L14.4803 2.75781H20.4915L20.2186 4.30029H16.0735L15.6863 6.50293H19.241L18.9744 7.99463ZM28.5251 10.0957H25.3005L24.3483 12H22.298L27.2365 2.75781H28.9567L30.715 12H28.8171L28.5251 10.0957ZM26.0622 8.55322H28.2902L27.7697 5.11279L26.0622 8.55322ZM42.0113 12H40.2086L37.6378 5.83643L36.565 12H34.7052L36.3111 2.75781H38.1075L40.6847 8.93408L41.7574 2.75781H43.6109L42.0113 12ZM54.0439 12H52.2412L49.6704 5.83643L48.5977 12H46.7378L48.3438 2.75781H50.1401L52.7173 8.93408L53.79 2.75781H55.6436L54.0439 12ZM64.8705 7.99463H61.3285L60.8969 10.4702H65.0609L64.7943 12H58.7704L60.3764 2.75781H66.3876L66.1146 4.30029H61.9696L61.5824 6.50293H65.1371L64.8705 7.99463Z" fill="white"/>
</svg>
